<mxGraphModel dx="0" dy="0" grid="1" gridSize="10" guides="1" tooltips="1" connect="1" arrows="1" fold="1" page="0" pageScale="1" background="none" math="0" shadow="0">
  <root>
    <mxCell id="0" />
    <mxCell id="1" parent="0" />
    <mxCell id="node2" parent="1" vertex="1" value="&lt;p style=&quot;margin:0px;margin-top:4px;text-align:center;&quot;&gt;&lt;b&gt;EL_APP_TABLE&lt;/b&gt;&lt;/p&gt;&lt;hr size=&quot;1&quot;/&gt;&lt;p style=&quot;margin:0 0 0 4px;line-height:1.6;&quot;&gt; APP_TABLE_PHYSICAL_NAME: varchar2(255)&lt;br/&gt; CREATE_DATE_TIME: timestamp(6)&lt;br/&gt; UPDATE_DATE_TIME: timestamp(6)&lt;/p&gt;&lt;hr size=&quot;1&quot;/&gt;&lt;p style=&quot;margin:0 0 0 4px;line-height:1.6;&quot;&gt; APP_TABLE_UID: number(20)&lt;/p&gt;" style="verticalAlign=top;align=left;overflow=fill;fontSize=14;fontFamily=Helvetica;html=1;rounded=0;shadow=0;comic=0;labelBackgroundColor=none;strokeWidth=1;">
      <mxGeometry x="-690" y="586" width="276" height="131" as="geometry" />
    </mxCell>
    <mxCell id="node1" parent="1" vertex="1" value="&lt;p style=&quot;margin:0px;margin-top:4px;text-align:center;&quot;&gt;&lt;b&gt;EL_BUNDLED_APP_TABLE&lt;/b&gt;&lt;/p&gt;&lt;hr size=&quot;1&quot;/&gt;&lt;p style=&quot;margin:0 0 0 4px;line-height:1.6;&quot;&gt; DATA_BUNDLE_UID: number(20)&lt;br/&gt; SOURCE_APP_TABLE_UID: number(20)&lt;br/&gt; TARGET_APP_TABLE_UID: number(20)&lt;br/&gt; RELATIONAL_ORDERING_NUMBER: number(20)&lt;br/&gt; EXTRACT_CUSTOM_QUERY: varchar2(4000)&lt;br/&gt; LOAD_CUSTOM_INSERT_QUERY: varchar2(4000)&lt;br/&gt; LOAD_CUSTOM_UPDATE_QUERY: varchar2(4000)&lt;br/&gt; CREATE_DATE_TIME: timestamp(6)&lt;br/&gt; UPDATE_DATE_TIME: timestamp(6)&lt;/p&gt;&lt;hr size=&quot;1&quot;/&gt;&lt;p style=&quot;margin:0 0 0 4px;line-height:1.6;&quot;&gt; BUNDLE_APP_TABLE_UID: number(20)&lt;/p&gt;" style="verticalAlign=top;align=left;overflow=fill;fontSize=14;fontFamily=Helvetica;html=1;rounded=0;shadow=0;comic=0;labelBackgroundColor=none;strokeWidth=1;">
      <mxGeometry x="-45" y="572" width="299" height="253" as="geometry" />
    </mxCell>
    <mxCell id="node0" parent="1" vertex="1" value="&lt;p style=&quot;margin:0px;margin-top:4px;text-align:center;&quot;&gt;&lt;b&gt;EL_DATASOURCE_CONFIGURATION&lt;/b&gt;&lt;/p&gt;&lt;hr size=&quot;1&quot;/&gt;&lt;p style=&quot;margin:0 0 0 4px;line-height:1.6;&quot;&gt; DATABASE_NAME: varchar2(50)&lt;br/&gt; DATABASE_PROVIDER: varchar2(50)&lt;br/&gt; DATABASE_PLATFORM: varchar2(255)&lt;br/&gt; DATABASE_CONNECTION_URL: varchar2(255)&lt;br/&gt; DATABASE_USER_NAME: varchar2(255)&lt;br/&gt; DATABASE_PASSWORD: varchar2(255)&lt;br/&gt; DRIVER_CLASS_NAME: varchar2(255)&lt;br/&gt; DATABASE_DIALECT: varchar2(255)&lt;br/&gt; DATABASE_SCHEMA: varchar2(255)&lt;br/&gt; CREATE_DATE_TIME: timestamp(6)&lt;br/&gt; UPDATE_DATE_TIME: timestamp(6)&lt;/p&gt;&lt;hr size=&quot;1&quot;/&gt;&lt;p style=&quot;margin:0 0 0 4px;line-height:1.6;&quot;&gt; DATASOURCE_CONFIGURATION_UID: number(20)&lt;/p&gt;" style="verticalAlign=top;align=left;overflow=fill;fontSize=14;fontFamily=Helvetica;html=1;rounded=0;shadow=0;comic=0;labelBackgroundColor=none;strokeWidth=1;">
      <mxGeometry x="-50" y="211" width="309" height="297" as="geometry" />
    </mxCell>
    <mxCell id="node3" parent="1" vertex="1" value="&lt;p style=&quot;margin:0px;margin-top:4px;text-align:center;&quot;&gt;&lt;b&gt;EL_DATA_BUNDLE&lt;/b&gt;&lt;/p&gt;&lt;hr size=&quot;1&quot;/&gt;&lt;p style=&quot;margin:0 0 0 4px;line-height:1.6;&quot;&gt; SOURCE_DATASOURCE_CONFIG_UID: number(20)&lt;br/&gt; TARGET_DATASOURCE_CONFIG_UID: number(20)&lt;br/&gt; DATA_BUNDLE_NAME: varchar2(255)&lt;br/&gt; CREATE_DATE_TIME: timestamp(6)&lt;br/&gt; UPDATE_DATE_TIME: timestamp(6)&lt;/p&gt;&lt;hr size=&quot;1&quot;/&gt;&lt;p style=&quot;margin:0 0 0 4px;line-height:1.6;&quot;&gt; DATA_BUNDLE_UID: number(20)&lt;/p&gt;" style="verticalAlign=top;align=left;overflow=fill;fontSize=14;fontFamily=Helvetica;html=1;rounded=0;shadow=0;comic=0;labelBackgroundColor=none;strokeWidth=1;">
      <mxGeometry x="564" y="612" width="305" height="165" as="geometry" />
    </mxCell>
    <mxCell id="edge1" edge="1" value="" parent="1" source="node1" target="node2" style="html=1;rounded=1;edgeStyle=orthogonalEdgeStyle;dashed=0;startArrow=none;endArrow=block;endSize=12;strokeColor=#595959;exitX=0.000;exitY=0.463;exitDx=0;exitDy=0;entryX=1.000;entryY=0.852;entryDx=0;entryDy=0;">
      <mxGeometry width="50" height="50" relative="1" as="geometry">
        <Array as="points" />
      </mxGeometry>
    </mxCell>
    <mxCell id="label8" parent="edge1" vertex="1" connectable="0" value="TARGET_APP_TABLE_UID:APP_TABLE_UID" style="edgeLabel;resizable=0;html=1;align=left;verticalAlign=top;strokeColor=default;">
      <mxGeometry x="-379" y="697" as="geometry" />
    </mxCell>
    <mxCell id="edge4" edge="1" value="" parent="1" source="node1" target="node2" style="html=1;rounded=1;edgeStyle=orthogonalEdgeStyle;dashed=0;startArrow=none;endArrow=block;endSize=12;strokeColor=#595959;exitX=0.000;exitY=0.382;exitDx=0;exitDy=0;entryX=1.000;entryY=0.685;entryDx=0;entryDy=0;">
      <mxGeometry width="50" height="50" relative="1" as="geometry">
        <Array as="points" />
      </mxGeometry>
    </mxCell>
    <mxCell id="label26" parent="edge4" vertex="1" connectable="0" value="SOURCE_APP_TABLE_UID:APP_TABLE_UID" style="edgeLabel;resizable=0;html=1;align=left;verticalAlign=top;strokeColor=default;">
      <mxGeometry x="-377" y="652" as="geometry" />
    </mxCell>
    <mxCell id="edge2" edge="1" value="" parent="1" source="node1" target="node3" style="html=1;rounded=1;edgeStyle=orthogonalEdgeStyle;dashed=0;startArrow=none;endArrow=block;endSize=12;strokeColor=#595959;exitX=1.000;exitY=0.198;exitDx=0;exitDy=0;entryX=0.000;entryY=0.890;entryDx=0;entryDy=0;">
      <mxGeometry width="50" height="50" relative="1" as="geometry">
        <Array as="points">
          <mxPoint x="303" y="622" />
          <mxPoint x="303" y="759" />
        </Array>
      </mxGeometry>
    </mxCell>
    <mxCell id="label14" parent="edge2" vertex="1" connectable="0" value="DATA_BUNDLE_UID" style="edgeLabel;resizable=0;html=1;align=left;verticalAlign=top;strokeColor=default;">
      <mxGeometry x="339" y="733" as="geometry" />
    </mxCell>
    <mxCell id="edge0" edge="1" value="" parent="1" source="node3" target="node0" style="html=1;rounded=1;edgeStyle=orthogonalEdgeStyle;dashed=0;startArrow=none;endArrow=block;endSize=12;strokeColor=#595959;exitX=0.750;exitY=0.000;exitDx=0;exitDy=0;entryX=1.000;entryY=0.601;entryDx=0;entryDy=0;">
      <mxGeometry width="50" height="50" relative="1" as="geometry">
        <Array as="points">
          <mxPoint x="792" y="390" />
        </Array>
      </mxGeometry>
    </mxCell>
    <mxCell id="label2" parent="edge0" vertex="1" connectable="0" value="SOURCE_DATASOURCE_CONFIG_UID:DATASOURCE_CONFIGURATION_UID" style="edgeLabel;resizable=0;html=1;align=left;verticalAlign=top;strokeColor=default;">
      <mxGeometry x="291" y="372" as="geometry" />
    </mxCell>
    <mxCell id="edge3" edge="1" value="" parent="1" source="node3" target="node0" style="html=1;rounded=1;edgeStyle=orthogonalEdgeStyle;dashed=0;startArrow=none;endArrow=block;endSize=12;strokeColor=#595959;exitX=0.250;exitY=0.000;exitDx=0;exitDy=0;entryX=1.000;entryY=0.850;entryDx=0;entryDy=0;">
      <mxGeometry width="50" height="50" relative="1" as="geometry">
        <Array as="points">
          <mxPoint x="640" y="463" />
        </Array>
      </mxGeometry>
    </mxCell>
    <mxCell id="label20" parent="edge3" vertex="1" connectable="0" value="TARGET_DATASOURCE_CONFIG_UID:DATASOURCE_CONFIGURATION_UID" style="edgeLabel;resizable=0;html=1;align=left;verticalAlign=top;strokeColor=default;">
      <mxGeometry x="279" y="436" as="geometry" />
    </mxCell>
  </root>
</mxGraphModel>